# xmcd
#
# Track frame offsets: 
#        150
#        14302
#        27142
#        39405
#        52090
#        67105
#        80477
#        93680
#        108162
#        120925
#        134542
#        149702
#        164050
#        177470
#        191722
#        205730
#        218875
#        232525
#        245900
#        258510
#        272185
#        286577
#        299995
#        313960
#
# Disc length: 4385 seconds
#
# Revision: 0
# Processed by: cddbd v1.4PL0 Copyright (c) Steve Scherf et al.
# Submitted via: ExactAudioCopy v0.90b4
#
DISCID=7d111f18
DTITLE=Bo Carter - Complete Recorded Works Vol. 1 1928 to 4 June 1931
DYEAR=1900
DGENRE=Acoustic
TTITLE0=Good Old Turnip Greens
TTITLE1=Bungalow Blues
TTITLE2=Mary Blues
TTITLE3=Electrocuted Blues (Electric Chair Blues)
TTITLE4=Corinne Corrina
TTITLE5=East Jackson Blues
TTITLE6=I'm an Old Bumble Bee
TTITLE7=Mean Feeling Blues
TTITLE8=I've Got The Whole World In My Hands
TTITLE9=She's Your Cook But She Burns My Bread Sometimes
TTITLE10=Same Thing Thats The Cats Fight About
TTITLE11=Time Is Tight Like That
TTITLE12=My Pencil Won't Write No More
TTITLE13=Banana In Your Fruit Basket
TTITLE14=Pin In Your Cushion
TTITLE15=Pussy Cat Blues
TTITLE16=Ram Rod Daddy
TTITLE17=Loveless Love
TTITLE18=I Love That Thing
TTITLE19=Backache Blues
TTITLE20=Sorry Feeling Blues
TTITLE21=Baby, When You Marry
TTITLE22=Boot it
TTITLE23=Twist It, Baby
EXTD=
EXTT0=
EXTT1=
EXTT2=
EXTT3=
EXTT4=
EXTT5=
EXTT6=
EXTT7=
EXTT8=
EXTT9=
EXTT10=
EXTT11=
EXTT12=
EXTT13=
EXTT14=
EXTT15=
EXTT16=
EXTT17=
EXTT18=
EXTT19=
EXTT20=
EXTT21=
EXTT22=
EXTT23=
PLAYORDER=
